<?xml version="1.0" standalone="no"?>
<!DOCTYPE svg PUBLIC "-//W3C//DTD SVG 20010904//EN"
 "http://www.w3.org/TR/2001/REC-SVG-20010904/DTD/svg10.dtd">
<svg version="1.0" xmlns="http://www.w3.org/2000/svg"
 width="300.000000pt" height="300.000000pt" viewBox="0 0 300.000000 300.000000"
 preserveAspectRatio="xMidYMid meet">
<metadata>
Created by potrace 1.11, written by Peter Selinger 2001-2013
</metadata>
<g transform="translate(0.000000,300.000000) scale(0.100000,-0.100000)"
fill="#000000" stroke="none">
<path d="M1205 2658 c-9 -32 -12 -69 -4 -74 4 -2 6 -11 3 -19 -4 -8 -1 -28 4
-45 14 -38 4 -38 -30 1 -23 26 -30 29 -48 19 -34 -18 -35 -39 -4 -71 l29 -31
-52 21 c-72 28 -121 33 -132 12 -14 -27 -2 -39 77 -81 86 -45 125 -77 177
-146 37 -48 43 -64 23 -64 -7 0 -39 -17 -70 -38 -123 -82 -205 -199 -238 -340
-14 -59 -17 -202 -5 -272 3 -25 9 -58 11 -75 3 -16 13 -64 24 -105 10 -41 21
-86 24 -100 3 -14 26 -95 51 -180 24 -85 45 -162 45 -171 0 -10 15 -30 34 -47
42 -36 130 -54 259 -53 l87 2 1 -53 c1 -29 2 -79 4 -110 1 -49 -1 -58 -16 -58
-36 0 -156 -44 -205 -75 -82 -53 -124 -141 -103 -219 9 -35 8 -40 -13 -54 -62
-44 -138 -160 -138 -211 0 -20 6 -21 86 -21 l86 0 44 48 c29 30 47 42 51 34 2
-7 10 -18 17 -25 7 -7 18 -22 25 -35 12 -22 12 -22 309 -22 l297 0 38 61 c27
43 43 59 54 55 29 -12 71 -51 87 -83 l16 -33 94 0 93 0 -3 33 c-5 43 -57 148
-90 180 -15 15 -46 39 -70 54 -44 28 -44 28 -41 80 9 137 -111 232 -311 247
-40 3 -77 8 -81 11 -10 6 -25 107 -25 175 l-1 45 125 32 c189 48 356 108 473
171 l49 26 -6 61 c-4 33 -8 87 -11 120 -6 85 -13 147 -30 265 -2 14 -11 75
-20 135 -9 61 -18 119 -20 130 -3 11 -7 38 -10 59 -7 48 -7 51 -45 213 -26
109 -37 137 -61 163 -38 39 -117 75 -198 90 -60 11 -231 15 -276 6 -11 -2 -42
-7 -68 -10 -58 -9 -72 -12 -114 -25 -30 -9 -32 -8 -23 8 5 10 7 20 5 23 -7 7
24 94 51 142 23 40 72 86 94 86 16 0 12 67 -6 84 -19 20 -28 20 -62 2 -37 -19
-57 -43 -98 -117 l-35 -64 7 50 c4 28 13 65 20 84 20 49 17 70 -11 83 -22 10
-28 8 -44 -9 -23 -24 -51 -102 -51 -141 -1 -46 -17 -4 -25 63 -11 108 -14 115
-51 115 -14 0 -26 -6 -29 -12z"/>
</g>
</svg>
